<?xml version="1.0" encoding="UTF-8" standalone="yes"?><svg xmlns="http://www.w3.org/2000/svg" xmlns:xlink="http://www.w3.org/1999/xlink" version="1.2" baseProfile="tiny" x="0" y="0" width="22" height="25" viewBox="0 0 22.1563 25.3281"><defs/><path fill="#4f5fa6" d="M 22.1563 10.1875 C 21.4219 10.6719 20.5781 11.0781 19.7344 11.375 C 17.4063 12.2188 14.3438 12.6563 11.0781 12.6563 C 7.8125 12.6563 4.75 12.2188 2.46875 11.375 C 1.57813 11.0781 0.734375 10.6719 0 10.1875 L 0 14.2344 C 0 16.4219 4.95313 18.2031 11.0781 18.2031 C 17.2188 18.2031 22.1563 16.4219 22.1563 14.2344 L 22.1563 10.1875 M 22.1563 6.32813 L 22.1563 3.95313 C 22.1563 1.78125 17.2188 0 11.0781 0 C 4.95313 0 0 1.78125 0 3.95313 L 0 6.32813 C 0 8.5 4.95313 10.2813 11.0781 10.2813 C 17.2188 10.2813 22.1563 8.5 22.1563 6.32813 M 19.7344 19.2813 C 17.4063 20.125 14.3438 20.5781 11.0781 20.5781 C 7.8125 20.5781 4.75 20.125 2.46875 19.2813 C 1.57813 18.9844 0.734375 18.5938 0 18.0938 L 0 21.3594 C 0 23.5469 4.95313 25.3281 11.0781 25.3281 C 17.2188 25.3281 22.1563 23.5469 22.1563 21.3594 L 22.1563 18.0938 C 21.4219 18.5938 20.5781 18.9844 19.7344 19.2813"/></svg>
