<?xml version="1.0" encoding="UTF-8" standalone="yes"?><svg xmlns="http://www.w3.org/2000/svg" xmlns:xlink="http://www.w3.org/1999/xlink" version="1.2" baseProfile="tiny" x="0" y="0" width="12" height="16" viewBox="0 0 12 16"><defs/><path fill="#4f5fa6" d="M 0 1 C 0 0.4375 0.4375 0 1 0 L 3 0 C 3.5625 0 4 0.4375 4 1 C 4 1.5625 3.5625 2 3 2 L 3 7 C 3 8.65625 4.34375 10 6 10 C 7.65625 10 9 8.65625 9 7 L 9 2 C 8.4375 2 8 1.5625 8 1 C 8 0.4375 8.4375 0 9 0 L 11 0 C 11.5625 0 12 0.4375 12 1 C 12 1.5625 11.5625 2 11 2 L 11 7 C 11 9.75 8.75 12 6 12 C 3.25 12 1 9.75 1 7 L 1 2 C 0.4375 2 0 1.5625 0 1 M 0 15 C 0 14.4375 0.4375 14 1 14 L 11 14 C 11.5625 14 12 14.4375 12 15 C 12 15.5625 11.5625 16 11 16 L 1 16 C 0.4375 16 0 15.5625 0 15"/></svg>
